<svg xmlns="http://www.w3.org/2000/svg" width="800" height="480" viewBox="0 0 800 480">
    <rect width="800" height="480" fill="white" />

    <text id="alertmessage" x="410" y="35" style="font-weight:bold;font-size:30px;font-family:'Nimbus Mono PS',monospace;text-anchor:middle">ALERT_HEADLINE</text>

    <g id="weathericon" transform="translate(150, 280) scale(0.1) translate(-480, 480)">
        WEATHER_ICON
    </g>
    <text id="temphighlow" x="155" y="360" style="font-size:38px;font-family:sans-serif;text-anchor:middle">TEMP_MIN °C / TEMP_MAX °C</text>
    <text id="weatherdesc1" x="155" y="400" style="font-size:28px;font-family:sans-serif;text-anchor:middle">WEATHER_DESCRIPTION</text>

    <path d="m 301.08466,394.8254 v 70 h 3 v -235.5 h -3 z" id="divider" />

    <g id="calendaricon" transform="scale(0.1) translate(3300,1800)">
        <path fill="#090509" d="M 506.645,89.372 C 502.609,76.437 491.008,66.87 476.738,66.87 h -31.782 v 49.326 c 0,26.284 -21.39,47.674 -47.674,47.674 -26.284,0 -47.674,-21.39 -47.674,-47.674 V 66.87 H 158.753 v 49.326 c 0,26.284 -21.39,47.674 -47.674,47.674 -26.284,0 -47.674,-21.39 -47.674,-47.674 V 66.87 H 31.782 c -14.27,0 -25.903,9.567 -29.907,22.502 H 0 v 387.365 c 0,17.544 14.239,31.782 31.782,31.782 h 444.955 c 17.544,0 31.782,-14.239 31.782,-31.782 V 89.372 Z M 476.737,476.737 H 31.782 v -254.26 h 444.955 z" />
        <path fill="#090509" d="m 111.08,132.088 c 8.772,0 15.891,-7.119 15.891,-15.891 V 15.891 C 126.971,7.119 119.852,0 111.08,0 102.308,0 95.189,7.119 95.189,15.891 v 100.306 c 0,8.772 7.119,15.891 15.891,15.891 z" />
        <path fill="#090509" d="m 397.281,132.088 c 8.74,0 15.891,-7.119 15.891,-15.891 V 15.891 C 413.172,7.119 406.021,0 397.281,0 388.541,0 381.39,7.119 381.39,15.891 v 100.306 c 0,8.772 7.151,15.891 15.891,15.891 z" />
    </g>

    <text id="calendarentry1" x="330" y="238" style="font-size:29px;font-family:sans-serif;text-anchor:beginning">
        <tspan x="330" dy="25" style="font-size:25px">CAL_DATETIME_1</tspan>
        <tspan x="330" dy="25" style="font-weight:bold">CAL_DESC_1</tspan>
    </text>

    <text id="calendarentry2" x="330" y="298" style="font-size:29px;font-family:sans-serif;text-anchor:beginning">
        <tspan x="330" dy="25" style="font-size:25px">CAL_DATETIME_2</tspan>
        <tspan x="330" dy="25" style="font-weight:bold">CAL_DESC_2</tspan>
    </text>

    <text id="calendarentry3" x="330" y="358" style="font-size:29px;font-family:sans-serif;text-anchor:beginning">
        <tspan x="330" dy="25" style="font-size:25px">CAL_DATETIME_3</tspan>
        <tspan x="330" dy="25" style="font-weight:bold">CAL_DESC_3</tspan>
    </text>

    <text id="calendarentry4" x="330" y="415" style="font-size:29px;font-family:sans-serif;text-anchor:beginning">
        <tspan x="330" dy="25" style="font-size:25px">CAL_DATETIME_4</tspan>
        <tspan x="330" dy="25" style="font-weight:bold">CAL_DESC_4</tspan>
    </text>

    <text id="textday" x="600" y="135" style="text-anchor:middle;font-weight:600;font-size:47px;font-family:sans-serif">DAY_NAME</text>
    <text id="textdate" x="600" y="190" style="text-anchor:middle;font-size:40px;font-family:sans-serif">DATE_STR</text>

    <!-- Sunrise/Sunset icons -->
    <g id="sunriseicon" transform="translate(100, 85) scale(1.3)">
        <path d="M4 18H2M6.31412 12.3141L4.8999 10.8999M17.6858 12.3141L19.1 10.8999M22 18H20M7 18C7 15.2386 9.23858 13 12 13C14.7614 13 17 15.2386 17 18M22 22H2M16 6L12 2M12 2L8 6M12 2V9" stroke="#000000" stroke-width="2" stroke-linecap="round" stroke-linejoin="round" fill="none"/>
    </g>
    <text id="sunrisetime" x="140" y="110" style="font-weight:bold;font-size:32px;font-family:sans-serif;text-anchor:beginning">SUNRISE_TIME Uhr</text>

    <g id="sunseticon" transform="translate(100, 125) scale(1.3)">
        <path d="M4 18H2M6.31412 12.3141L4.8999 10.8999M17.6858 12.3141L19.1 10.8999M22 18H20M7 18C7 15.2386 9.23858 13 12 13C14.7614 13 17 15.2386 17 18M22 22H2M16 5L12 9M12 9L8 5M12 9V2" stroke="#000000" stroke-width="2" stroke-linecap="round" stroke-linejoin="round" fill="none"/>
    </g>
    <text id="sunsettime" x="140" y="150" style="font-weight:bold;font-size:32px;font-family:sans-serif;text-anchor:beginning">SUNSET_TIME Uhr</text>
</svg>